<?xml version="1.0" standalone="no"?>
<!DOCTYPE svg PUBLIC "-//W3C//DTD SVG 20010904//EN"
 "http://www.w3.org/TR/2001/REC-SVG-20010904/DTD/svg10.dtd">
<svg version="1.0" xmlns="http://www.w3.org/2000/svg"
 width="500.000000pt" height="500.000000pt" viewBox="0 0 500.000000 500.000000"
 preserveAspectRatio="xMidYMid meet">

<g transform="translate(0.000000,500.000000) scale(0.100000,-0.100000)"
fill="#000000" stroke="none">
<path d="M1460 2395 l0 -165 25 0 c17 0 25 6 26 18 0 9 1 33 2 52 3 55 29 45
46 -17 12 -48 17 -53 41 -53 l28 0 -14 55 c-13 49 -13 58 1 77 21 30 21 146
-1 176 -13 19 -24 22 -85 22 l-69 0 0 -165z m108 58 l3 -53 -30 0 c-30 0 -31
1 -31 48 0 55 5 64 35 60 17 -3 20 -11 23 -55z"/>
<path d="M1670 2395 l0 -165 85 0 c84 0 85 0 85 25 0 24 -3 25 -55 25 l-55 0
0 45 0 45 40 0 c36 0 40 3 40 25 0 23 -4 25 -40 25 l-40 0 0 45 0 45 55 0 c52
0 55 1 55 25 0 25 -1 25 -85 25 l-85 0 0 -165z"/>
<path d="M1898 2549 c-15 -8 -18 -24 -18 -83 l0 -73 51 -19 c43 -16 52 -23 55
-46 1 -15 -3 -32 -10 -38 -20 -16 -46 -1 -46 26 0 19 -5 24 -25 24 -23 0 -25
-4 -25 -45 0 -53 16 -65 84 -65 64 0 76 16 76 100 l0 69 -55 17 c-55 18 -56
18 -53 53 2 29 8 37 26 39 13 2 22 -2 23 -10 1 -7 2 -20 3 -28 0 -8 13 -16 29
-18 25 -3 27 -1 27 37 0 23 -7 46 -16 55 -18 18 -99 21 -126 5z"/>
<path d="M2076 2544 c-9 -22 1 -34 30 -34 l24 0 0 -140 0 -140 30 0 30 0 0
140 0 140 25 0 c20 0 25 5 25 25 0 25 -1 25 -79 25 -63 0 -80 -3 -85 -16z"/>
<path d="M2286 2538 c-12 -17 -16 -50 -16 -143 0 -151 7 -165 84 -165 81 0 86
10 86 167 0 154 -5 163 -88 163 -41 0 -54 -4 -66 -22z m97 -41 c8 -22 7 -192
-2 -205 -4 -8 -17 -12 -27 -10 -17 3 -19 15 -22 116 l-3 112 25 0 c13 0 26 -6
29 -13z"/>
<path d="M2480 2395 l0 -165 30 0 c30 0 30 1 30 55 0 41 4 55 14 55 9 0 19
-20 27 -55 11 -51 14 -55 41 -55 15 0 28 1 28 3 0 1 -7 27 -15 57 -13 47 -12
56 0 70 11 12 15 40 15 93 0 98 -8 107 -101 107 l-69 0 0 -165z m110 60 c0
-52 -1 -55 -25 -55 -24 0 -25 3 -25 55 0 52 1 55 25 55 24 0 25 -3 25 -55z"/>
<path d="M2756 2543 c-7 -24 -66 -300 -66 -308 0 -3 12 -5 27 -3 21 2 29 10
35 36 8 28 13 32 43 32 31 0 35 -3 41 -35 5 -30 10 -35 35 -35 25 0 29 3 24
23 -9 41 -65 301 -65 304 0 2 -15 3 -34 3 -24 0 -36 -5 -40 -17z m58 -165 c7
-36 5 -38 -19 -38 -29 0 -29 5 -13 86 13 65 12 67 32 -48z"/>
<path d="M2940 2395 l0 -165 25 0 c24 0 24 2 27 88 l3 87 31 -85 c28 -75 35
-85 58 -88 l26 -3 0 165 0 166 -25 0 c-25 0 -25 -1 -25 -86 0 -82 -11 -103
-24 -49 -4 14 -16 50 -27 80 -17 46 -24 55 -45 55 l-24 0 0 -165z"/>
<path d="M3150 2395 l0 -165 30 0 c28 0 29 1 32 58 2 31 7 57 12 57 4 0 18
-25 30 -55 20 -49 26 -55 54 -58 37 -4 37 -9 -16 109 l-30 66 34 73 c19 40 34
74 34 76 0 2 -13 4 -28 4 -24 0 -32 -8 -59 -62 l-32 -63 0 63 -1 62 -30 0 -30
0 0 -165z"/>
<path d="M3380 2405 c0 -175 0 -175 84 -175 73 0 76 8 76 181 l0 149 -25 0
-25 0 0 -134 c0 -110 -3 -135 -15 -140 -40 -15 -45 1 -45 140 l0 134 -25 0
-25 0 0 -155z"/>
</g>
</svg>
